<svg xmlns="http://www.w3.org/2000/svg" viewBox="0 0 209.1 109"><path d="M208.2 7.9c-.9 0-1.8.2-2.6.7-1.9 1.2-3.5 2.7-5.1 4.3-2 2.1-4.3 3.8-6.7 5.4-.6.4-1.3.8-1.9 1.2-.2.2-.5.3-.8.4-2.7 1.3-5.6 2.3-8.3 3.8-.1.1-.3.1-.4.2-2.1.9-4.3 1.6-6.5 2.1l-5.1 1.2c-1.5.3-3.1.5-4.7.8-2.5.5-5 .7-7.6.7-1.9 0-3.8 0-5.7.1h-1.5c-1.4-.1-2.8-.3-4.2-.5-1.3-.2-2.6-.3-3.8-.5-1.5-.3-2.9-.5-4.4-.5-.5 0-1-.1-1.4-.3-.3-.1-.6-.2-1-.4-2.1-.9-4.2-1.9-6.1-3.3-.6-.5-1.2-.9-1.8-1.2-3.7-2.3-7.5-4.4-11.5-6.1-1.4-.6-2.9-1.2-4.4-1.7-2.5-.8-5.1-1.4-7.8-1.5-1 0-1.9-.2-2.8-.2-1.3-.1-2.5-.2-3.8-.3h-7.2c-1.3 0-2.7.1-4 .4-1.8.4-3.6.8-5.4 1.1-3.7.8-7.4 1.5-11 2.5-1.3.4-2.6.8-3.9 1.3-2 .8-3.7 2.2-5.3 3.5-1.4 1.2-2.8 2.5-4.2 3.7-.3.2-.6.5-.9.6-.5.3-1.1.5-1.6.8-1.2.7-2.3 1.5-3.5 2.2-.2.1-.3.2-.5.2-.3.1-.7.2-1 .3-.4.1-.8.3-1.1.5-.6-.5-1.8-1.8-2.2-2.4-.1-.1-.1-.3-.1-.4 0-2-.8-3.8-1.4-5.6-.1-.2-.2-.4-.4-.7-.1-.3-.3-.6-.4-.9-.9-2-2-3.8-3.4-5.4-.8-.8-1.6-1.7-2.3-2.5-.3-.4-.7-.7-1-1.1-.7-.6-1.2-1.4-1.6-2.3-.4-.8-.2-1.6.1-2.4.1-.3.3-.4.6-.4h2.1c.4 0 .9-.1 1.3-.1 1.2.1 2.5.1 3.7.2.9.1 1.8.1 2.7.4l1.2.3c2.4.5 4.7 1 7 1.8 1.6.6 3.2 1.3 4.5 2.4.3.2.4.5.5.8.1.6.3 1.2.5 1.8.2.7.7 1.2 1.5 1.2h.1c.6.3 1 .1 1.4-.3.5-.4.9-.9 1.4-1.3.2-.2.3-.5.2-.8-.2-.6-.3-1.2-.5-1.7-.4-.7-.8-1.3-1.4-1.9C61.9 7.3 61 6.5 60 6c-4.3-2.2-8.8-3.8-13.6-4.8-2.1-.5-4.3-.9-6.5-1-.8 0-1.6-.1-2.5-.1C36 0 34.6-.1 33.3 0c-1.5.1-3 .3-4.6.4-.9.1-1.7.1-2.6.2-2 .4-4.1 1-6.1 1.8-.6.2-1.2.5-1.8.7-1.6.6-3.2 1.3-4.8 1.9-.7.3-1.4.6-2 1-2 1.2-3.8 2.6-5.6 4-.6.4-1.1.9-1.7 1.2-.9.5-1.7 1.2-2.5 1.9-.7.9-1.2 2-1.6 3.2-.1.2 0 .4 0 .5 0 .3.2.5.4.7.4.3.7.2 1.1 0 .1 0 .1.1.2.1.1.1.2.1.2.2.6.9 1.5 1.3 2.5 1.5h.1c.4.2.9.2 1.4.2.7-.1 1.5-.1 2.3-.1 1 0 1.8.5 2.6.9.9.4 1.8.8 2.9.8.3 0 .6 0 .9.1.6.2 1.2.2 1.9.2.8 0 1.6.1 2.3.5.7.4 1.5.7 2.2 1 .5.2 1 .4 1.6.4.8 0 1.6.3 2.3.7.5.4 1.1.7 1.7.7.2 0 .3.1.5.3.3.3.5.6.9.9.4.3.6.7.9 1 0 0 .1.1 0 .2-.2.7.2 1.2.5 1.8.1.1.2.3.2.4.2.8.5 1.7.6 2.5.3 1.7.5 3.5.7 5.2.1 1 .1 2.1.1 3.1.1 1.2 0 2.4.4 3.5.1.1.1.3.1.4l.3 2.4c.4 2.2 1 4.3 2.2 6.2.5.9 1.1 1.7 1.7 2.6 1.2 1.9 2.8 3.5 4.6 4.9.4.3.7.6.8 1.1 0 .2.2.5.3.7.4.8.8 1.5 1.2 2.3.2.3.4.6.5.9l.6 2.1c.2 1.2.6 2.4 1 3.6.3.9.7 1.8 1.3 2.6.2.3.4.5.6.8-.1.3-.3.6-.4.8 0 .1-.1.1-.2.2-.6.4-1.3.8-1.9 1.1-1.8.9-3.3 2.2-4.6 3.8-.4.5-.7 1-1.2 1.4-1.2 1-2.4 1.9-3.7 2.8-1 .7-2.1 1.3-3.1 1.9-.7.5-1.3 1-2 1.5-.2.1-.3.3-.5.4-.1.1-.3.3-.2.6 0 0 0 .2-.1.2-.4.7-.7 1.4-1.1 2.2-1.2 2.6-1.8 5.3-1.6 8.1 0 .4 0 .9.3 1.2l.1.1c.2-.1.3-.2.4-.3.5.3.9.5 1.5.6.5.1.5.1.8-.3.2-.3.4-.7.7-.8.4-.2.7-.5.7-.9 0-.1.1-.1.1-.2.5.2.9.3 1.3-.1.1.1.2.1.3.2.5.3 1 .1 1.2-.4.2-.6.5-1 1-1.3.2-.1.4-.3.4-.6 0-.6-.1-1.2-.1-1.8 0-.4.1-.8.5-1.1.3-.2.5-.4.8-.6l4.8-3.3c2.4-1.7 4.9-3.1 7.5-4.6 2-1.2 4.1-2.1 6.1-3.1.1-.1.3-.1.5-.1.4-.1.8-.2 1.3-.3.3-.1.6-.3.7-.6.2-.7.4-1.4.1-2.1-.2-.4-.3-.9-.4-1.4-.1-1.5-.3-3-.8-4.4v-.2c.3-.1.5 0 .7.2.7.9 1.5 1.7 2.3 2.5.1.1.2.2.2.4.4.8.8 1.6 1.3 2.3.9 1.7.9 1.2.9 3.2v.2c0 .1 0 .3-.1.4-.8 1.7-1.3 3.6-1.8 5.4-.5 1.7-.9 3.4-.9 5.1 0 .2-.1.4-.1.5-.4.9-.9 1.8-1.3 2.7-.1.2-.2.3-.3.5-.7.8-1.4 1.7-2 2.5-.8 1-1.4 2-1.8 3.2-.2.5-.4 1-.8 1.5-.2.3-.5.6-.5 1 0 .1 0 .1-.1.2-.4.3-.4.8-.4 1.3 0 .4 0 .9.5 1.1.4.2.8 0 1.2-.2.2-.1.3-.2.5-.4s.3-.2.5-.1c.4.2.7.4 1.1.6v.2c.1.8.5 1 1.2.6.3-.1.6-.3.9-.4.5-.2.9-.4 1.1-.9.2 0 .3.1.4.1.5 0 .8.2 1.1.7l.3.3c.4.1.7.1 1.1.2.3-.6.7-1.2 1-1.9.1 0 .3-.1.4-.1 1.1-.4 1.3-.7 1.4-1.7v-.5c0-1.1-.1-2.2 0-3.2 0-.4.1-.9.2-1.3.2-.5.3-1.1.7-1.5.9-1.1 1.6-2.2 2.1-3.6.4-1 .7-2 1.1-2.9.7-1.5 1.4-2.9 2.1-4.4.5-1 1-2 1.6-3 .5-.8.9-1.6 1.2-2.5.1-.2.1-.6 0-.8-.1-.3-.1-.6-.1-.8 0-.4 0-.8-.2-1.2-.5-1.2-.4-2.5-.4-3.7 0 0 0-.1.1-.1.6-.2 1.3-.3 2-.2 1 0 2-.1 2.9-.4.5-.2 1-.3 1.5-.4.5 0 1-.1 1.4-.3 1.1-.4 2-1.1 3-1.7 2.1-1.4 4.3-2.9 6.7-3.9 1.1-.5 2.2-1 3.3-1.6.6-.3 1.2-.7 1.9-1.1.4.6.7 1.2 1.1 1.8 1 1.3 2 2.6 2.9 4 .8 1.2 2 2.2 3.1 3.1.2.2.4.3.6.5 1.3 1.1 2.7 2.1 4.3 2.6.1 0 .2.1.2.1 1.7 1 3.4 2.1 5 3.1.3.2.6.4.9.7.2.2.4.3.6.5.3.3.6.6.8.9l.3.3c-.3.3-.5.7-.7 1-.6.7-1 1.5-1.3 2.4-.1.2-.3.4-.5.6-.3.3-.7.5-1 .8-1.1.9-2.1 1.9-3.1 2.8-1.4 1.2-2.9 2.3-4.1 3.8-.2.3-.4.5-.4.8-.2 1.4-.2 2.8.1 4.1.4 1.6.9 3.2 1.7 4.6.4.7 1 1.2 1.8 1.3.5.1.9.2 1.4.3.5.1.9 0 1.3-.2.2-.1.4-.3.7-.3.4 0 .5-.3.6-.6.1-.3.1-.6.1-1 .1-.4.1-.8.2-1.1.2-.7.5-1.3.7-2 .3-1.1.9-2.1 1.7-3 .7-.8 1.4-1.5 2.1-2.3.3-.3.5-.6.6-1 0-.1.1-.2.2-.3.5-.6 1.1-1.2 1.6-1.8 1.1-1.2 2.4-2.3 3.7-3.4.9-.7 1.7-1.5 2.3-2.4 0-.1.1-.1.2-.2.1.1.1.2.2.2.4.8.9 1.5 1.5 2 .8.7 1.5 1.4 2.4 2 .5.3.8.7.9 1.3.2 1.3.4 2.7.4 4 .1 1.7.1 3.5.3 5.2.1.7 0 1.2-.7 1.5-.1 0-.1.1-.2.2-.7 1-1.7 1.6-2.7 2.2-.6.3-1.1.6-1.7.8-.7.2-1.3.6-1.8 1.1-.4.4-.7.8-1.1 1.1-.4.3-.4.7 0 1 .1.1.3.1.3.2.2.4.5.4.9.4h.8c1.5-.1 2.9-.3 4.4-.3.5 0 1.1-.1 1.6-.1.4 0 .7-.1 1.1-.1.5 0 1 .1 1.5.1.9-.1 1.8-.2 2.7-.4l1.5-.3c.6-.1.8-.5.9-1.1 0-.2 0-.4.1-.5.5-1 1-1.9 1.5-2.9.1-.2.2-.4.2-.7l-.6-4.2c-.1-1.1-.4-2.1-.3-3.3.1-1-.2-2.1-.4-3.1-.1-.3-.1-.5-.1-.8 0-.7.1-1.4.1-2 .1-.6-.2-.9-.7-1.2-.8-.6-1.5-1.1-2.1-1.8-1.2-1.3-2.1-2.7-2.9-4.3-.1-.3-.2-.6-.3-.8-.5-1-.8-2.1-1.1-3.1-.2-.7-.3-1.5-.5-2.3-.7-2.7-1.5-5.3-1.9-8.1-.1-.8-.3-1.6-.4-2.4 0-1.1.1-2.2.1-3.3 0-.2 0-.3.1-.5.3-.9.6-1.9.8-2.8.1-.5.1-.5.6-.5 1.6 0 3.2-.4 4.7-.8 1-.3 2-.6 2.9-1 .5-.2 1-.4 1.3-1 0-.1.2-.2.3-.2.8-.4 1.5-.9 2.3-1.3 1.4-.9 2.8-1.6 4.3-2.1.4-.1.8-.3 1.2-.5 2.4-.9 4.8-1.7 7.3-2.4 3.5-.9 7-2 10.3-3.4 2.2-.9 4.4-1.6 6.6-2.3 3.8-1.1 7.4-2.5 11-4.2 1.5-.7 3-1.4 4.3-2.4 1.8-1.3 3.6-2.7 5.2-4.2 2.1-1.9 4.1-3.8 6.1-5.8.6-.6 1.2-1.3 1.4-2.2 0-.1.1-.2.1-.2.7-1.2 1.4-2.4 2.2-3.6.6-.9 1.1-1.9 1.8-2.7 1.4-1.7 2.6-3.5 3.7-5.3.8-1.2 1.3-2.6 2.3-3.7.1.2-.4-.6-1.1-.6z"/></svg>